<svg width="24" height="24" viewBox="0 0 24 24" fill="none" xmlns="http://www.w3.org/2000/svg">
<path d="M6.7381 4.57202C6.05714 4.57202 5.5 5.12916 5.5 5.81012V18.1911C5.5 18.872 6.05714 19.4292 6.7381 19.4292H17.2619C17.9429 19.4292 18.5 18.872 18.5 18.1911V5.81012C18.5 5.12916 17.9429 4.57202 17.2619 4.57202H6.7381ZM9.21429 17.572H7.35714V15.7149H9.21429V17.572ZM9.21429 15.0958H7.35714V13.2387H9.21429V15.0958ZM9.21429 12.6196H7.35714V10.7625H9.21429V12.6196ZM11.6905 17.572H9.83333V15.7149H11.6905V17.572ZM11.6905 15.0958H9.83333V13.2387H11.6905V15.0958ZM11.6905 12.6196H9.83333V10.7625H11.6905V12.6196ZM14.1667 17.572H12.3095V15.7149H14.1667V17.572ZM14.1667 15.0958H12.3095V13.2387H14.1667V15.0958ZM14.1667 12.6196H12.3095V10.7625H14.1667V12.6196ZM16.6429 17.572H14.7857V13.2387H16.6429V17.572ZM16.6429 12.6196H14.7857V10.7625H16.6429V12.6196ZM16.6429 9.5244H7.35714V6.42916H16.6429V9.5244Z" fill="#49454F"/>
</svg>
