<svg width="24" height="25" viewBox="0 0 24 25" fill="none" xmlns="http://www.w3.org/2000/svg">
<path d="M16.3496 12.507C16.3496 12.6508 16.3219 12.7837 16.2666 12.9054C16.2113 13.0271 16.1255 13.1461 16.0093 13.2623L11.0371 18.1847C10.8545 18.3673 10.6331 18.4586 10.373 18.4586C10.1019 18.4586 9.87223 18.3673 9.68408 18.1847C9.49593 17.9965 9.40186 17.7697 9.40186 17.504C9.40186 17.2384 9.50423 17.0032 9.70898 16.7985L14.0669 12.507L9.70898 8.21545C9.50423 8.0107 9.40186 7.77551 9.40186 7.50989C9.40186 7.24426 9.49593 7.02014 9.68408 6.83752C9.87223 6.64937 10.1019 6.5553 10.373 6.5553C10.6331 6.5553 10.8545 6.64661 11.0371 6.82922L16.0093 11.7516C16.2362 11.9674 16.3496 12.2192 16.3496 12.507Z" fill="#3C3C43" fill-opacity="0.3"/>
</svg>
