<svg width="25" height="24" viewBox="0 0 25 24" fill="none" xmlns="http://www.w3.org/2000/svg">
<path d="M12.0291 2.85767L19.4317 7.14338V15.7148L12.0291 20.0005L4.62646 15.7148V7.14338L12.0291 2.85767ZM12.0291 13.7668C12.649 13.7668 13.2436 13.5205 13.682 13.0821C14.1204 12.6437 14.3667 12.0491 14.3667 11.4291C14.3667 10.8091 14.1204 10.2145 13.682 9.77612C13.2436 9.33772 12.649 9.09143 12.0291 9.09143C11.4091 9.09143 10.8145 9.33772 10.3761 9.77612C9.93769 10.2145 9.6914 10.8091 9.6914 11.4291C9.6914 12.0491 9.93769 12.6437 10.3761 13.0821C10.8145 13.5205 11.4091 13.7668 12.0291 13.7668Z" fill="#49454F"/>
</svg>
